# xmcd
#
# Track frame offsets:
#	150
#	13276
#	26838
#	38430
#	53054
#	70188
#	80450
#	92439
#	104840
#	116708
#
# Disc length: 1774 seconds
#
# Revision: 0
# Processed by: cddbd v1.5.2PL0 Copyright (c) Steve Scherf et al.
# Submitted via: audiograbber 1.83.01
#
DISCID=7e06ec0a
DTITLE=Vic Stillion - Original Country
DYEAR=1996
DGENRE=Country
TTITLE0=Fast Paced Life
TTITLE1=Ceramic Convention
TTITLE2=My Way On The Highway
TTITLE3=Does She Even Care
TTITLE4=Redneck Man About Town
TTITLE5=Zookeeper
TTITLE6=Where's A Truckstop In L.A.
TTITLE7=Back Home Blues
TTITLE8=She's One Step Ahead Of You
TTITLE9=Lonely
EXTD=
EXTT0=
EXTT1=
EXTT2=
EXTT3=
EXTT4=
EXTT5=
EXTT6=
EXTT7=
EXTT8=
EXTT9=
PLAYORDER=
